<svg xmlns="http://www.w3.org/2000/svg" width="240" height="140"><path d="M0 0 C17.04923862 -0.6195551 32.58873614 2.64869585 49 7 C49 7.66 49 8.32 49 9 C49.62648437 9.20496094 50.25296875 9.40992188 50.8984375 9.62109375 C51.71570313 9.89050781 52.53296875 10.15992188 53.375 10.4375 C54.59316406 10.83775391 54.59316406 10.83775391 55.8359375 11.24609375 C58 12 58 12 60 13 C60.66 11.02 61.32 9.04 62 7 C66.95 7 71.9 7 77 7 C76.855625 8.32 76.71125 9.64 76.5625 11 C76.48386719 11.82628906 76.40523438 12.65257812 76.32421875 13.50390625 C76 16 76 16 75.39453125 18.02734375 C74.77768624 20.2952927 74.56058439 21.67368207 75 24 C77.02446559 26.80840758 79.2387609 29.17642197 81.703125 31.60546875 C84 34 84 34 85.609375 36.73828125 C86.85625266 39.30903719 86.85625266 39.30903719 90 40 C90 34.8431178 87.73321228 33.29965866 84.375 29.8125 C79.23777874 24.09378218 79.23777874 24.09378218 78.43359375 20.39453125 C79.30814181 15.15625882 82.53656035 11.45907665 86.65234375 8.26953125 C90.8180987 6.01683515 94.45212896 5.72091127 99 7 C101.9311032 8.87468475 103.86016523 11.2820835 106 14 C106.76699219 14.92683594 107.53398437 15.85367188 108.32421875 16.80859375 C109.89197517 18.70959308 111.44639239 20.62170795 112.984375 22.546875 C114.58091938 24.48995615 116.17952253 26.2716986 118 28 C116.43815664 31.91815039 113.93904114 34.10639392 110.8125 36.875 C109.83023438 37.74898437 108.84796875 38.62296875 107.8359375 39.5234375 C104.57526788 42.37090932 101.29666922 45.19432407 98 48 C97.01 48.99 97.01 48.99 96 50 C92.31602884 52.45598077 89.55276192 52.2271532 85.3125 52.125 C82.899375 52.08375 80.48625 52.0425 78 52 C76.02 47.38 74.04 42.76 72 38 C71.01 39.32 70.02 40.64 69 42 C64.86303804 47.38847987 61.34160149 50.74322062 54.625 52.6875 C47.61365895 53.52218346 41.34730172 53.36102508 35 50 C30.59147916 46.09873575 28.16604348 42.58553415 27.78125 36.59375 C27.8559625 30.7661751 29.2459688 25.16686534 30.5 19.5 C30.85771484 17.83710937 30.85771484 17.83710937 31.22265625 16.140625 C31.80783056 13.42541621 32.40043799 10.71206134 33 8 C22.11056098 4.50045761 11.29920987 2.59008071 0 1 C0 0.67 0 0.34 0 0 Z M48 14 C47.29702308 16.85112955 46.61240956 19.70471464 45.9375 22.5625 C45.63875977 23.76229492 45.63875977 23.76229492 45.33398438 24.98632812 C44.15343857 30.06060396 43.91035953 33.8944519 45 39 C49.06350237 39.96892524 49.06350237 39.96892524 53.09765625 39.31640625 C55.60833962 37.57903398 55.91303682 36.23576275 56.6875 33.3125 C56.9246875 32.42433594 57.161875 31.53617188 57.40625 30.62109375 C58.13301976 27.41278777 58.64460886 24.26959846 59 21 C57.35616456 19.83051998 55.70987731 18.6644855 54.0625 17.5 C53.14597656 16.8503125 52.22945312 16.200625 51.28515625 15.53125 C49.32000336 13.90722252 49.32000336 13.90722252 48 14 Z M92 18 C92 21.77910478 92.99703962 22.46106101 95.5 25.1875 C96.1496875 25.90292969 96.799375 26.61835937 97.46875 27.35546875 C97.9740625 27.89816406 98.479375 28.44085938 99 29 C99.66 28.34 100.32 27.68 101 27 C99.69088122 25.49704815 98.37761608 23.99770689 97.0625 22.5 C96.33160156 21.6646875 95.60070312 20.829375 94.84765625 19.96875 C94.23792969 19.3190625 93.62820312 18.669375 93 18 C92.67 18 92.34 18 92 18 Z " fill="#F80031" transform="translate(59,38)"></path><path d="M0 0 C1.51815699 0.00015911 3.0363194 0.00585313 4.55444336 0.01586914 C5.35208603 0.01728409 6.1497287 0.01869904 6.97154236 0.02015686 C9.52916146 0.02577223 12.08669429 0.03832727 14.64428711 0.05102539 C16.37410356 0.05603841 18.10392137 0.06060166 19.83374023 0.06469727 C24.08312264 0.07574664 28.33244023 0.09302153 32.58178711 0.11352539 C32.44083647 1.73895619 32.29386624 3.3638659 32.14428711 4.98852539 C32.06307617 5.89344727 31.98186523 6.79836914 31.89819336 7.73071289 C31.58178711 10.11352539 31.58178711 10.11352539 30.58178711 12.11352539 C23.65178711 12.11352539 16.72178711 12.11352539 9.58178711 12.11352539 C9.25178711 13.43352539 8.92178711 14.75352539 8.58178711 16.11352539 C14.85178711 16.11352539 21.12178711 16.11352539 27.58178711 16.11352539 C25.70678711 26.98852539 25.70678711 26.98852539 24.58178711 28.11352539 C23.2416349 28.26934843 21.89419808 28.36396681 20.54663086 28.42993164 C19.73774414 28.47182617 18.92885742 28.5137207 18.09545898 28.55688477 C17.24532227 28.59620117 16.39518555 28.63551758 15.51928711 28.67602539 C14.6652832 28.71920898 13.8112793 28.76239258 12.93139648 28.80688477 C10.81506674 28.91329241 8.69844898 29.0139427 6.58178711 29.11352539 C6.25178711 30.10352539 5.92178711 31.09352539 5.58178711 32.11352539 C12.84178711 32.11352539 20.10178711 32.11352539 27.58178711 32.11352539 C25.70678711 43.98852539 25.70678711 43.98852539 24.58178711 45.11352539 C21.84284626 45.20211185 19.12925441 45.22876018 16.39038086 45.21118164 C15.57054214 45.20976669 14.75070343 45.20835175 13.90602112 45.20689392 C11.27707329 45.20127828 8.64820937 45.18872318 6.01928711 45.17602539 C4.24129354 45.1710124 2.46329865 45.16644915 0.68530273 45.16235352 C-3.68256834 45.15130378 -8.05037637 45.1340287 -12.41821289 45.11352539 C-11.82178501 39.20161584 -11.00199341 33.43534111 -9.82446289 27.61352539 C-9.59708435 26.47089233 -9.59708435 26.47089233 -9.3651123 25.30517578 C-9.04762357 23.71503531 -8.72823079 22.12527387 -8.40698242 20.53588867 C-7.91403873 18.09283807 -7.42944995 15.64822664 -6.94555664 13.20336914 C-6.63485274 11.65248884 -6.32367246 10.10170388 -6.01196289 8.55102539 C-5.86714478 7.81883789 -5.72232666 7.08665039 -5.57312012 6.33227539 C-4.31206876 0.14321205 -4.31206876 0.14321205 0 0 Z " fill="#27221F" transform="translate(54.418212890625,44.886474609375)"></path><path d="M0 0 C4.21373609 0.4852181 7.69849123 1.029004 11.4375 3.0625 C12.45650391 3.60583984 12.45650391 3.60583984 13.49609375 4.16015625 C13.99238281 4.43730469 14.48867187 4.71445312 15 5 C14.53667282 9.78771423 13.95444126 14.42254824 12.9375 19.125 C12.07881113 23.1958213 11.81954097 26.84944222 12 31 C14.97 30.67 17.94 30.34 21 30 C21.19335938 29.34773438 21.38671875 28.69546875 21.5859375 28.0234375 C22.98640448 23.3228602 24.41208726 18.64159109 26 14 C29.72413823 15.51319386 31.76513998 17.6764029 34.3125 20.75 C35.03050781 21.59046875 35.74851563 22.4309375 36.48828125 23.296875 C38 26 38 26 37.83984375 29.1328125 C36.17861662 34.80416466 32.92971388 38.82307328 28 42 C19.84576361 45.6397262 12.54455272 46.16835903 4.1171875 43.12109375 C-0.44842114 40.70351131 -3.38732484 36.83802547 -5 32 C-5.45637191 24.89363736 -4.0309977 18.41845448 -2.5 11.5 C-2.26152344 10.39140625 -2.02304688 9.2828125 -1.77734375 8.140625 C-1.19216944 5.42541621 -0.59956201 2.71206134 0 0 Z " fill="#272320" transform="translate(92,46)"></path><path d="M0 0 C17.04923862 -0.6195551 32.58873614 2.64869585 49 7 C49 7.66 49 8.32 49 9 C49.62648437 9.20496094 50.25296875 9.40992188 50.8984375 9.62109375 C51.71570313 9.89050781 52.53296875 10.15992188 53.375 10.4375 C54.59316406 10.83775391 54.59316406 10.83775391 55.8359375 11.24609375 C58 12 58 12 60 13 C60.66 11.02 61.32 9.04 62 7 C66.95 7 71.9 7 77 7 C76.855625 8.32 76.71125 9.64 76.5625 11 C76.48386719 11.82628906 76.40523438 12.65257812 76.32421875 13.50390625 C76 16 76 16 75.39453125 18.02734375 C74.77768624 20.2952927 74.56058439 21.67368207 75 24 C77.02446559 26.80840758 79.2387609 29.17642197 81.703125 31.60546875 C84 34 84 34 85.609375 36.73828125 C86.85625266 39.30903719 86.85625266 39.30903719 90 40 C90.66 39.67 91.32 39.34 92 39 C91.98839844 39.77085938 91.97679687 40.54171875 91.96484375 41.3359375 C91.95582031 42.33882812 91.94679688 43.34171875 91.9375 44.375 C91.92589844 45.37273437 91.91429687 46.37046875 91.90234375 47.3984375 C91.81993398 49.98432453 91.81993398 49.98432453 93 52 C88.05 52 83.1 52 78 52 C77.54109375 50.91460937 77.0821875 49.82921875 76.609375 48.7109375 C75.98989761 47.26549027 75.37008825 45.82018528 74.75 44.375 C74.29947266 43.30572266 74.29947266 43.30572266 73.83984375 42.21484375 C71.94016136 37.80919735 69.79856968 33.92600982 67 30 C65.8553125 28.39125 65.8553125 28.39125 64.6875 26.75 C48.71835825 8.55730687 22.65766797 4.21938877 0 1 C0 0.67 0 0.34 0 0 Z " fill="#F10030" transform="translate(59,38)"></path><path d="M0 0 C12.02492447 -1.92201662 12.02492447 -1.92201662 16.77539062 1.14697266 C20.18375953 4.18236169 22.98267887 7.71591431 25.73242188 11.34521484 C27.46103353 13.60186543 29.34807971 15.70136848 31.25 17.8125 C32.168632 18.87330124 33.08623014 19.93500767 34 21 C32.5045292 24.59721356 30.47293692 26.63097221 27.5625 29.1875 C26.67691406 29.96609375 25.79132813 30.7446875 24.87890625 31.546875 C21.05060858 34.80897939 17.1670615 37.99755132 13.25 41.15234375 C10.97880251 42.95605161 10.97880251 42.95605161 9 45 C6.41935871 45.14497985 3.95056116 45.18677545 1.375 45.125 C0.66859375 45.11597656 -0.0378125 45.10695312 -0.765625 45.09765625 C-2.51056098 45.07407603 -4.25532295 45.03820461 -6 45 C-4.71738173 41.1521452 -2.93747052 40.15480673 0.25 37.6875 C3.44446668 35.15010991 6.422151 32.78405109 8.9375 29.5625 C10.96896961 27.03855291 12.18731415 26.35784834 15 25 C15.71016154 23.6893159 16.38170283 22.3564405 17 21 C15.37561031 19.20777668 13.75051554 17.4162017 12.125 15.625 C11.66480469 15.11710937 11.20460937 14.60921875 10.73046875 14.0859375 C8.85398142 12.01908189 6.97429452 9.97429452 5 8 C0 2.28571429 0 2.28571429 0 0 Z " fill="#282320" transform="translate(165,45)"></path><path d="M0 0 C4.95 0 9.9 0 15 0 C14.44915905 5.8756368 13.55242359 11.30778017 12 17 C6.82390176 13.71842138 2.14010271 10.54075781 -2 6 C-1.34 4.02 -0.68 2.04 0 0 Z " fill="#26231F" transform="translate(121,45)"></path><path d="M0 0 C3.33523252 1.38009621 5.18607951 2.84950652 7 6 C6.67 6.99 6.34 7.98 6 9 C2.0507432 8.44894091 -1.34920174 7.61064629 -5 6 C-3.86695008 2.60085025 -2.87481525 1.94745549 0 0 Z " fill="#E9002F" transform="translate(151,34)"></path><path d="M0 0 C0.99 0.99 1.98 1.98 3 3 C3.66 2.01 4.32 1.02 5 0 C5.66 0 6.32 0 7 0 C7.33 1.32 7.66 2.64 8 4 C8.66 2.68 9.32 1.36 10 0 C10.66 0 11.32 0 12 0 C11.690625 0.7425 11.38125 1.485 11.0625 2.25 C10.1905075 4.50692176 9.52332993 6.6450153 9 9 C8.01 9 7.02 9 6 9 C6 7.68 6 6.36 6 5 C4.68 6.32 3.36 7.64 2 9 C0 7 0 7 -0.125 3.375 C-0.08375 2.26125 -0.0425 1.1475 0 0 Z " fill="#1E1A18" transform="translate(109,96)"></path><path d="M0 0 C2.31 0 4.62 0 7 0 C8.60031344 3.20062687 7.03173691 5.72271806 6 9 C3.69 9 1.38 9 -1 9 C-2.60031344 5.79937313 -1.03173691 3.27728194 0 0 Z M1 2 C0.67 3.65 0.34 5.3 0 7 C1.65 6.67 3.3 6.34 5 6 C5.33 5.01 5.66 4.02 6 3 C4.35 2.67 2.7 2.34 1 2 Z " fill="#1D1917" transform="translate(93,96)"></path><path d="M0 0 C1.4540625 0.0309375 1.4540625 0.0309375 2.9375 0.0625 C3.01177838 3.40502724 3.00296953 5.8660914 1.9375 9.0625 C-1.0625 8.0625 -1.0625 8.0625 -3.0625 6.0625 C-3.0625 7.0525 -3.0625 8.0425 -3.0625 9.0625 C-3.7225 9.0625 -4.3825 9.0625 -5.0625 9.0625 C-4.06477273 0.08295455 -4.06477273 0.08295455 0 0 Z M-2.0625 2.0625 C-2.0625 3.0525 -2.0625 4.0425 -2.0625 5.0625 C-1.0725 4.7325 -0.0825 4.4025 0.9375 4.0625 C0.9375 3.4025 0.9375 2.7425 0.9375 2.0625 C-0.0525 2.0625 -1.0425 2.0625 -2.0625 2.0625 Z " fill="#1C1816" transform="translate(145.0625,95.9375)"></path><path d="M0 0 C4 2 4 2 5 3 C5.33 2.01 5.66 1.02 6 0 C6.66 0 7.32 0 8 0 C7.34 2.97 6.68 5.94 6 9 C4.35 7.68 2.7 6.36 1 5 C1 6.32 1 7.64 1 9 C0.34 9 -0.32 9 -1 9 C-0.67 6.03 -0.34 3.06 0 0 Z " fill="#1E1917" transform="translate(46,96)"></path><path d="M0 0 C1.4540625 0.0309375 1.4540625 0.0309375 2.9375 0.0625 C2.9375 0.7225 2.9375 1.3825 2.9375 2.0625 C1.9475 2.5575 1.9475 2.5575 0.9375 3.0625 C0.9375 4.0525 0.9375 5.0425 0.9375 6.0625 C-0.3825 5.7325 -1.7025 5.4025 -3.0625 5.0625 C-3.0625 5.7225 -3.0625 6.3825 -3.0625 7.0625 C-1.7425 7.0625 -0.4225 7.0625 0.9375 7.0625 C0.9375 7.7225 0.9375 8.3825 0.9375 9.0625 C-1.0425 9.0625 -3.0225 9.0625 -5.0625 9.0625 C-4.06477273 0.08295455 -4.06477273 0.08295455 0 0 Z " fill="#1D1917" transform="translate(88.0625,95.9375)"></path><path d="M0 0 C1.2065625 0.0309375 1.2065625 0.0309375 2.4375 0.0625 C2.1075 1.7125 1.7775 3.3625 1.4375 5.0625 C0.1175 5.0625 -1.2025 5.0625 -2.5625 5.0625 C-2.5625 5.7225 -2.5625 6.3825 -2.5625 7.0625 C-1.2425 7.0625 0.0775 7.0625 1.4375 7.0625 C1.4375 7.7225 1.4375 8.3825 1.4375 9.0625 C-0.5425 9.0625 -2.5225 9.0625 -4.5625 9.0625 C-3.56521739 0.08695652 -3.56521739 0.08695652 0 0 Z " fill="#201D1B" transform="translate(125.5625,95.9375)"></path><path d="M0 0 C1.2065625 0.0309375 1.2065625 0.0309375 2.4375 0.0625 C2.1075 1.7125 1.7775 3.3625 1.4375 5.0625 C0.1175 5.0625 -1.2025 5.0625 -2.5625 5.0625 C-2.5625 5.7225 -2.5625 6.3825 -2.5625 7.0625 C-1.2425 7.0625 0.0775 7.0625 1.4375 7.0625 C1.4375 7.7225 1.4375 8.3825 1.4375 9.0625 C-0.5425 9.0625 -2.5225 9.0625 -4.5625 9.0625 C-3.56521739 0.08695652 -3.56521739 0.08695652 0 0 Z " fill="#1E1A18" transform="translate(79.5625,95.9375)"></path><path d="M0 0 C2.52090778 -0.0272367 5.04151457 -0.04695207 7.5625 -0.0625 C8.61920898 -0.07506836 8.61920898 -0.07506836 9.69726562 -0.08789062 C14.24024798 -0.10882603 18.51784892 0.25199318 23 1 C23 1.33 23 1.66 23 2 C15.02589123 3.37484634 7.93696428 2.36610623 0 1 C0 0.67 0 0.34 0 0 Z " fill="#AB0023" transform="translate(59,38)"></path><path d="M0 0 C1.65 0 3.3 0 5 0 C5 0.66 5 1.32 5 2 C4.01 2.33 3.02 2.66 2 3 C2.99 3.66 3.98 4.32 5 5 C4.34 6.32 3.68 7.64 3 9 C1.35 8.67 -0.3 8.34 -2 8 C-1.67 7.34 -1.34 6.68 -1 6 C-0.01 6 0.98 6 2 6 C1.01 5.34 0.02 4.68 -1 4 C-0.67 2.68 -0.34 1.36 0 0 Z " fill="#1D1A17" transform="translate(160,96)"></path><path d="M0 0 C1.65 0 3.3 0 5 0 C5.38218767 1.65614657 5.71395102 3.32457024 6 5 C5 6 5 6 2.4375 6.0625 C1.2309375 6.0315625 1.2309375 6.0315625 0 6 C0 6.99 0 7.98 0 9 C-0.66 9 -1.32 9 -2 9 C-1.34 6.03 -0.68 3.06 0 0 Z M1 2 C1 2.99 1 3.98 1 5 C1.99 4.67 2.98 4.34 4 4 C4 3.34 4 2.68 4 2 C3.01 2 2.02 2 1 2 Z " fill="#1E1A18" transform="translate(68,96)"></path><path d="M0 0 C1.74965358 -0.05429959 3.49979787 -0.09292823 5.25 -0.125 C6.22453125 -0.14820313 7.1990625 -0.17140625 8.203125 -0.1953125 C11.0196498 0.00137219 12.60949036 0.55431084 15 2 C14.34 2 13.68 2 13 2 C13 2.66 13 3.32 13 4 C8.428721 3.45144652 4.32564205 2.58255197 0 1 C0 0.67 0 0.34 0 0 Z " fill="#D4002E" transform="translate(77,40)"></path><path d="M0 0 C0.66 0 1.32 0 2 0 C1.67 2.31 1.34 4.62 1 7 C1.99 6.67 2.98 6.34 4 6 C5.22520264 2.99152582 5.22520264 2.99152582 6 0 C6.66 0.33 7.32 0.66 8 1 C6.25 6.75 6.25 6.75 4 9 C1.875 8.625 1.875 8.625 0 8 C-0.98120464 4.94736336 -0.98120464 3.05263664 0 0 Z " fill="#1F1B18" transform="translate(150,96)"></path><path d="M0 0 C1.32 0 2.64 0 4 0 C4 0.66 4 1.32 4 2 C3.01 2.33 2.02 2.66 1 3 C1.99 3.66 2.98 4.32 4 5 C3.34 6.32 2.68 7.64 2 9 C0.35 8.67 -1.3 8.34 -3 8 C-2.67 7.34 -2.34 6.68 -2 6 C-0.02 6.495 -0.02 6.495 2 7 C2 6.34 2 5.68 2 5 C0.68 4.67 -0.64 4.34 -2 4 C-1.34 2.68 -0.68 1.36 0 0 Z " fill="#201C1A" transform="translate(61,96)"></path><path d="M0 0 C2.31 0 4.62 0 7 0 C7 0.66 7 1.32 7 2 C6.01 2 5.02 2 4 2 C3.67 4.31 3.34 6.62 3 9 C2.34 9 1.68 9 1 9 C1.33 6.69 1.66 4.38 2 2 C1.34 2 0.68 2 0 2 C0 1.34 0 0.68 0 0 Z " fill="#1B1715" transform="translate(133,96)"></path><path d="M0 0 C2.31 0 4.62 0 7 0 C7 0.66 7 1.32 7 2 C6.01 2 5.02 2 4 2 C3.67 4.31 3.34 6.62 3 9 C2.34 9 1.68 9 1 9 C1.33 6.69 1.66 4.38 2 2 C1.34 2 0.68 2 0 2 C0 1.34 0 0.68 0 0 Z " fill="#1D1917" transform="translate(166,96)"></path><path d="M0 0 C0.33 0 0.66 0 1 0 C1 7.92 1 15.84 1 24 C0.67 24 0.34 24 0 24 C0 16.08 0 8.16 0 0 Z " fill="#28201F" transform="translate(198,36)"></path><path d="M0 0 C0.66 0.33 1.32 0.66 2 1 C0.70700306 3.88437779 -0.65941363 5.87219421 -3 8 C-3.66 7.67 -4.32 7.34 -5 7 C-4.1875 4.0625 -4.1875 4.0625 -3 1 C-2.01 0.67 -1.02 0.34 0 0 Z " fill="#B80025" transform="translate(159,66)"></path><path d="M0 0 C0.33 0 0.66 0 1 0 C1 3.3 1 6.6 1 10 C-2 6 -2 6 -1.75 3.3125 C-1 1 -1 1 0 0 Z " fill="#DF002B" transform="translate(150,77)"></path><path d="M0 0 C4.95 0 9.9 0 15 0 C15 0.33 15 0.66 15 1 C13.06263299 1.16820551 11.12510094 1.33451095 9.1875 1.5 C7.56908203 1.63921875 7.56908203 1.63921875 5.91796875 1.78125 C3 2 3 2 0 2 C0 1.34 0 0.68 0 0 Z " fill="#1F1B19" transform="translate(165,45)"></path><path d="M0 0 C1.65 0 3.3 0 5 0 C5 1.32 5 2.64 5 4 C3.35 4 1.7 4 0 4 C0 2.68 0 1.36 0 0 Z " fill="#1A1614" transform="translate(123,96)"></path><path d="M0 0 C0.66 0 1.32 0 2 0 C1.4140625 6.15234375 1.4140625 6.15234375 1 8 C0.01 8.495 0.01 8.495 -1 9 C-0.67 6.03 -0.34 3.06 0 0 Z " fill="#1F1A18" transform="translate(42,96)"></path><path d="M0 0 C0.33 0.66 0.66 1.32 1 2 C0.67 2.66 0.34 3.32 0 4 C-0.66 4 -1.32 4 -2 4 C-1.34 2.68 -0.68 1.36 0 0 Z " fill="#191513" transform="translate(102,102)"></path><path d="M0 0 C0.99 0.495 0.99 0.495 2 1 C1.67 1.66 1.34 2.32 1 3 C0.67 2.01 0.34 1.02 0 0 Z " fill="#020101" transform="translate(154,60)"></path><path d="" fill="#FFFFFF" transform="translate(0,0)"></path><path d="" fill="#0F0807" transform="translate(0,0)"></path><path d="" fill="#020101" transform="translate(0,0)"></path><path d="" fill="#020101" transform="translate(0,0)"></path><path d="" fill="#020101" transform="translate(0,0)"></path><path d="" fill="#1C100E" transform="translate(0,0)"></path><path d="" fill="#020101" transform="translate(0,0)"></path><path d="" fill="#020101" transform="translate(0,0)"></path><path d="" fill="#1C100E" transform="translate(0,0)"></path><path d="" fill="#020101" transform="translate(0,0)"></path><path d="" fill="#020101" transform="translate(0,0)"></path><path d="" fill="#020101" transform="translate(0,0)"></path><path d="" fill="#1C100E" transform="translate(0,0)"></path><path d="" fill="#020101" transform="translate(0,0)"></path><path d="" fill="#020101" transform="translate(0,0)"></path><path d="" fill="#020101" transform="translate(0,0)"></path><path d="" fill="#020101" transform="translate(0,0)"></path><path d="" fill="#020101" transform="translate(0,0)"></path><path d="" fill="#1C100E" transform="translate(0,0)"></path><path d="" fill="#020101" transform="translate(0,0)"></path><path d="" fill="#020101" transform="translate(0,0)"></path><path d="" fill="#020101" transform="translate(0,0)"></path><path d="" fill="#020101" transform="translate(0,0)"></path><path d="" fill="#020101" transform="translate(0,0)"></path><path d="" fill="#020101" transform="translate(0,0)"></path><path d="" fill="#020101" transform="translate(0,0)"></path><path d="" fill="#020101" transform="translate(0,0)"></path><path d="" fill="#020101" transform="translate(0,0)"></path><path d="" fill="#020101" transform="translate(0,0)"></path><path d="" fill="#020101" transform="translate(0,0)"></path><path d="" fill="#020101" transform="translate(0,0)"></path><path d="" fill="#020101" transform="translate(0,0)"></path><path d="" fill="#020101" transform="translate(0,0)"></path><path d="" fill="#020101" transform="translate(0,0)"></path><path d="" fill="#020101" transform="translate(0,0)"></path><path d="" fill="#020101" transform="translate(0,0)"></path><path d="" fill="#020101" transform="translate(0,0)"></path><path d="" fill="#020101" transform="translate(0,0)"></path><path d="" fill="#020101" transform="translate(0,0)"></path><path d="" fill="#020101" transform="translate(0,0)"></path><path d="" fill="#1C100E" transform="translate(0,0)"></path><path d="" fill="#020101" transform="translate(0,0)"></path><path d="" fill="#020101" transform="translate(0,0)"></path><path d="" fill="#020101" transform="translate(0,0)"></path><path d="" fill="#020101" transform="translate(0,0)"></path><path d="" fill="#1C100E" transform="translate(0,0)"></path><path d="" fill="#020101" transform="translate(0,0)"></path><path d="" fill="#020101" transform="translate(0,0)"></path><path d="" fill="#020101" transform="translate(0,0)"></path><path d="" fill="#020101" transform="translate(0,0)"></path><path d="" fill="#020101" transform="translate(0,0)"></path><path d="" fill="#020101" transform="translate(0,0)"></path><path d="" fill="#020101" transform="translate(0,0)"></path><path d="" fill="#020101" transform="translate(0,0)"></path><path d="" fill="#020101" transform="translate(0,0)"></path><path d="" fill="#020101" transform="translate(0,0)"></path><path d="" fill="#020101" transform="translate(0,0)"></path><path d="" fill="#020101" transform="translate(0,0)"></path><path d="" fill="#020101" transform="translate(0,0)"></path><path d="" fill="#020101" transform="translate(0,0)"></path><path d="" fill="#020101" transform="translate(0,0)"></path><path d="" fill="#020101" transform="translate(0,0)"></path><path d="" fill="#020101" transform="translate(0,0)"></path><path d="" fill="#020101" transform="translate(0,0)"></path><path d="" fill="#020101" transform="translate(0,0)"></path><path d="" fill="#020101" transform="translate(0,0)"></path><path d="" fill="#020101" transform="translate(0,0)"></path><path d="" fill="#020101" transform="translate(0,0)"></path><path d="" fill="#020101" transform="translate(0,0)"></path><path d="" fill="#020101" transform="translate(0,0)"></path><path d="" fill="#020101" transform="translate(0,0)"></path><path d="" fill="#020101" transform="translate(0,0)"></path><path d="" fill="#020101" transform="translate(0,0)"></path><path d="" fill="#020101" transform="translate(0,0)"></path><path d="" fill="#020101" transform="translate(0,0)"></path><path d="" fill="#020101" transform="translate(0,0)"></path><path d="" fill="#020101" transform="translate(0,0)"></path><path d="" fill="#020101" transform="translate(0,0)"></path><path d="" fill="#020101" transform="translate(0,0)"></path><path d="" fill="#020101" transform="translate(0,0)"></path><path d="" fill="#020101" transform="translate(0,0)"></path><path d="" fill="#020101" transform="translate(0,0)"></path><path d="" fill="#020101" transform="translate(0,0)"></path><path d="" fill="#020101" transform="translate(0,0)"></path><path d="" fill="#020101" transform="translate(0,0)"></path><path d="" fill="#020101" transform="translate(0,0)"></path><path d="" fill="#020101" transform="translate(0,0)"></path><path d="" fill="#020101" transform="translate(0,0)"></path><path d="" fill="#020101" transform="translate(0,0)"></path><path d="" fill="#020101" transform="translate(0,0)"></path><path d="" fill="#020101" transform="translate(0,0)"></path><path d="" fill="#020101" transform="translate(0,0)"></path><path d="" fill="#020101" transform="translate(0,0)"></path><path d="" fill="#020101" transform="translate(0,0)"></path><path d="" fill="#020101" transform="translate(0,0)"></path><path d="" fill="#020101" transform="translate(0,0)"></path><path d="" fill="#020101" transform="translate(0,0)"></path><path d="" fill="#020101" transform="translate(0,0)"></path><path d="" fill="#020101" transform="translate(0,0)"></path><path d="" fill="#020101" transform="translate(0,0)"></path><path d="" fill="#020101" transform="translate(0,0)"></path><path d="" fill="#020101" transform="translate(0,0)"></path><path d="" fill="#1C100E" transform="translate(0,0)"></path><path d="" fill="#020101" transform="translate(0,0)"></path><path d="" fill="#020101" transform="translate(0,0)"></path><path d="" fill="#020101" transform="translate(0,0)"></path><path d="" fill="#1C100E" transform="translate(0,0)"></path><path d="" fill="#020101" transform="translate(0,0)"></path><path d="" fill="#020101" transform="translate(0,0)"></path><path d="" fill="#020101" transform="translate(0,0)"></path><path d="" fill="#020101" transform="translate(0,0)"></path><path d="" fill="#020101" transform="translate(0,0)"></path><path d="" fill="#1C100E" transform="translate(0,0)"></path><path d="" fill="#020101" transform="translate(0,0)"></path><path d="" fill="#020101" transform="translate(0,0)"></path><path d="" fill="#020101" transform="translate(0,0)"></path><path d="" fill="#020101" transform="translate(0,0)"></path><path d="" fill="#020101" transform="translate(0,0)"></path><path d="" fill="#020101" transform="translate(0,0)"></path><path d="" fill="#020101" transform="translate(0,0)"></path><path d="" fill="#020101" transform="translate(0,0)"></path><path d="" fill="#020101" transform="translate(0,0)"></path><path d="" fill="#020101" transform="translate(0,0)"></path><path d="" fill="#020101" transform="translate(0,0)"></path><path d="" fill="#020101" transform="translate(0,0)"></path><path d="" fill="#020101" transform="translate(0,0)"></path><path d="" fill="#020101" transform="translate(0,0)"></path><path d="" fill="#1C100E" transform="translate(0,0)"></path><path d="" fill="#020101" transform="translate(0,0)"></path><path d="" fill="#020101" transform="translate(0,0)"></path><path d="" fill="#1B1212" transform="translate(0,0)"></path><path d="" fill="#020101" transform="translate(0,0)"></path><path d="" fill="#1B1212" transform="translate(0,0)"></path><path d="" fill="#020101" transform="translate(0,0)"></path><path d="" fill="#1C100E" transform="translate(0,0)"></path><path d="" fill="#020101" transform="translate(0,0)"></path><path d="" fill="#020101" transform="translate(0,0)"></path><path d="" fill="#020101" transform="translate(0,0)"></path><path d="" fill="#020101" transform="translate(0,0)"></path><path d="" fill="#020101" transform="translate(0,0)"></path><path d="" fill="#020101" transform="translate(0,0)"></path><path d="" fill="#020101" transform="translate(0,0)"></path><path d="" fill="#020101" transform="translate(0,0)"></path><path d="" fill="#020101" transform="translate(0,0)"></path><path d="" fill="#020101" transform="translate(0,0)"></path><path d="" fill="#020101" transform="translate(0,0)"></path><path d="" fill="#020101" transform="translate(0,0)"></path><path d="" fill="#020101" transform="translate(0,0)"></path><path d="" fill="#020101" transform="translate(0,0)"></path><path d="" fill="#020101" transform="translate(0,0)"></path><path d="" fill="#020101" transform="translate(0,0)"></path><path d="" fill="#020101" transform="translate(0,0)"></path><path d="" fill="#020101" transform="translate(0,0)"></path><path d="" fill="#020101" transform="translate(0,0)"></path><path d="" fill="#020101" transform="translate(0,0)"></path><path d="" fill="#020101" transform="translate(0,0)"></path><path d="" fill="#020101" transform="translate(0,0)"></path><path d="" fill="#020101" transform="translate(0,0)"></path><path d="" fill="#020101" transform="translate(0,0)"></path><path d="" fill="#020101" transform="translate(0,0)"></path><path d="" fill="#020101" transform="translate(0,0)"></path><path d="" fill="#020101" transform="translate(0,0)"></path><path d="" fill="#020101" transform="translate(0,0)"></path><path d="" fill="#020101" transform="translate(0,0)"></path><path d="" fill="#020101" transform="translate(0,0)"></path><path d="" fill="#020101" transform="translate(0,0)"></path><path d="" fill="#1C100E" transform="translate(0,0)"></path><path d="" fill="#020101" transform="translate(0,0)"></path><path d="" fill="#1C100E" transform="translate(0,0)"></path><path d="" fill="#020101" transform="translate(0,0)"></path><path d="" fill="#020101" transform="translate(0,0)"></path><path d="" fill="#020101" transform="translate(0,0)"></path><path d="" fill="#020101" transform="translate(0,0)"></path><path d="" fill="#020101" transform="translate(0,0)"></path><path d="" fill="#020101" transform="translate(0,0)"></path><path d="" fill="#020101" transform="translate(0,0)"></path><path d="" fill="#020101" transform="translate(0,0)"></path></svg>