<svg xmlns="http://www.w3.org/2000/svg" width="15" height="15" viewBox="0 0 15 15" fill="none"><path d="M8.50098 3.32568C10.0683 3.69979 11.3007 4.93312 11.6748 6.50049H14.0596V8.50049H11.6748C11.3008 10.0678 10.0683 11.3003 8.50098 11.6743V14.0591H6.50098V11.6743C4.93369 11.3002 3.70132 10.0677 3.32715 8.50049H0.941406V6.50049H3.32715C3.70138 4.93324 4.93369 3.69984 6.50098 3.32568V0.940918H8.50098V3.32568ZM7.50098 5.20752C6.23494 5.20765 5.20814 6.23445 5.20801 7.50049C5.20814 8.76653 6.23494 9.79235 7.50098 9.79248C8.76701 9.79235 9.79283 8.76653 9.79297 7.50049C9.79284 6.23445 8.76701 5.20765 7.50098 5.20752Z" fill="#3139D7"></path></svg>